HIERARCHY
ROOT Hips
{
	OFFSET -3.958830 18.904000 13.208200
	CHANNELS 6 Xposition Yposition Zposition Zrotation Yrotation Xrotation 
	JOINT LHipJoint
	{
		OFFSET 0.000000 0.000000 0.000000
		CHANNELS 3 Zrotation Yrotation Xrotation
		JOINT LeftUpLeg
		{
			OFFSET 1.800000 -1.400000 0.085000
			CHANNELS 3 Zrotation Yrotation Xrotation
			JOINT LeftLeg
			{
				OFFSET 2.215000 -6.000000 0.000000
				CHANNELS 3 Zrotation Yrotation Xrotation
				JOINT LeftFoot
				{
					OFFSET 2.500000 -6.900000 0.000000
					CHANNELS 3 Zrotation Yrotation Xrotation
					JOINT LeftToeBase
					{
						OFFSET 0.200000 -0.500000 1.950000
						CHANNELS 3 Zrotation Yrotation Xrotation
						End Site
						{
							OFFSET 0.000000 0.000000 0.000000
						}
					}
				}
			}
		}
	}
	JOINT RHipJoint
	{
		OFFSET 0.000000 0.000000 0.000000
		CHANNELS 3 Zrotation Yrotation Xrotation
		JOINT RightUpLeg
		{
			OFFSET -1.800000 -1.400000 0.085000
			CHANNELS 3 Zrotation Yrotation Xrotation
			JOINT RightLeg
			{
				OFFSET -2.215000 -6.000000 0.000000
				CHANNELS 3 Zrotation Yrotation Xrotation
				JOINT RightFoot
				{
					OFFSET -2.500000 -6.900000 0.000000
					CHANNELS 3 Zrotation Yrotation Xrotation
					JOINT RightToeBase
					{
						OFFSET -0.200000 -0.500000 1.950000
						CHANNELS 3 Zrotation Yrotation Xrotation
						End Site
						{
							OFFSET 0.000000 0.000000 0.000000
						}
					}
				}
			}
		}
	}
	JOINT LowerBack
	{
		OFFSET 0.000000 0.000000 0.000000
		CHANNELS 3 Zrotation Yrotation Xrotation
		JOINT Spine
		{
			OFFSET -0.087000 1.940000 -0.288900
			CHANNELS 3 Zrotation Yrotation Xrotation
			JOINT Spine1
			{
				OFFSET 0.000000 1.950000 0.060000
				CHANNELS 3 Zrotation Yrotation Xrotation
				JOINT Neck
				{
					OFFSET 0.000000 0.000000 0.000000
					CHANNELS 3 Zrotation Yrotation Xrotation
					JOINT Neck1
					{
						OFFSET 0.000000 1.600000 0.340000
						CHANNELS 3 Zrotation Yrotation Xrotation
						JOINT Head
						{
							OFFSET 0.000000 1.667000 -0.240000
							CHANNELS 3 Zrotation Yrotation Xrotation
							End Site
							{
								OFFSET 0.000000 0.000000 0.000000
							}
						}
					}
				}
				JOINT LeftShoulder
				{
					OFFSET 0.000000 0.000000 0.000000
					CHANNELS 3 Zrotation Yrotation Xrotation
					JOINT LeftArm
					{
						OFFSET 2.700000 1.550000 -0.730000
						CHANNELS 3 Zrotation Yrotation Xrotation
						JOINT LeftForeArm
						{
							OFFSET 5.450000 0.000000 0.000000
							CHANNELS 3 Zrotation Yrotation Xrotation
							JOINT LeftHand
							{
								OFFSET 3.450000 0.000000 0.000000
								CHANNELS 3 Zrotation Yrotation Xrotation
								JOINT LeftHandIndex1
								{
									OFFSET 0.750000 0.000000 0.000000
									CHANNELS 3 Zrotation Yrotation Xrotation
									End Site
									{
										OFFSET 0.000000 0.000000 0.000000
									}
								}
							}
						}
					}
				}
				JOINT RightShoulder
				{
					OFFSET 0.000000 0.000000 0.000000
					CHANNELS 3 Zrotation Yrotation Xrotation
					JOINT RightArm
					{
						OFFSET -2.700000 1.550000 -0.730000
						CHANNELS 3 Zrotation Yrotation Xrotation
						JOINT RightForeArm
						{
							OFFSET -5.450000 0.000000 0.000000
							CHANNELS 3 Zrotation Yrotation Xrotation
							JOINT RightHand
							{
								OFFSET -3.450000 0.000000 0.000000
								CHANNELS 3 Zrotation Yrotation Xrotation
								JOINT RightHandIndex1
								{
									OFFSET -0.750000 0.000000 0.000000
									CHANNELS 3 Zrotation Yrotation Xrotation
									End Site
									{
										OFFSET 0.000000 0.000000 0.000000
									}
								}
							}
						}
					}
				}
			}
		}
	}
}
MOTION
Frames: 7
Frame Time: 0.016667
-27.495250 16.023200 -14.145120 -10.106022 37.158689 -16.317461 -14.995795 8.659778 6.261630 28.362666 5.332599 -40.218105 -14.465444 3.813734 -8.381970 -0.369908 5.863480 2.325679 0.165700 0.232610 0.039130 19.074271 -10.321147 1.959213 -7.403708 -1.988678 11.563322 21.930939 -15.551141 28.342643 -1.474995 -8.016211 1.641006 0.220120 0.270290 -0.138630 -5.917548 2.640498 -9.655394 18.276287 -5.573172 27.584466 -12.642552 6.793790 3.970218 -9.489635 -7.644673 -17.230167 -12.762976 9.100797 27.122316 6.324790 4.480350 -30.092710 6.880812 -27.938959 4.110584 46.708247 4.557384 -8.441195 36.922584 -10.755020 -2.459182 -4.089912 2.313051 0.654180 -0.123700 0.060520 0.006030 13.192149 33.489773 14.556026 26.900146 28.057444 3.718624 5.997988 20.885698 1.055334 2.108946 -0.762808 -0.408430 0.672520 0.241620 -0.104580 
-27.365980 15.991390 -14.115300 -9.713322 37.805793 -16.308933 -15.059168 9.389045 5.957454 25.781462 4.515713 -41.138985 -13.673732 4.320869 -5.160983 -0.535639 5.434177 2.452773 0.076600 0.057450 -0.009030 18.874959 -10.363734 2.106884 -8.465972 -1.753275 11.811948 22.284543 -15.855797 28.565336 -1.475036 -7.921059 1.653115 0.112260 0.230140 -0.206470 -5.597180 1.754550 -9.476939 17.085647 -2.899325 28.649617 -10.277816 7.889327 0.126002 -8.918970 -9.888862 -16.247705 -19.616484 6.963943 31.019105 11.586050 0.623990 -34.926870 6.338855 -24.467430 1.408069 43.731485 -9.737346 -10.467944 33.800464 -8.440563 -2.800120 -3.898350 2.197205 0.836380 -0.281690 0.085100 -0.046480 12.855672 31.502013 14.600768 28.940110 24.181394 2.447651 8.135989 23.756808 1.648012 2.134392 -0.624007 -0.484520 0.740420 0.330040 -0.132570 
-27.248830 15.996960 -14.081550 -10.167612 39.145171 -19.404889 -15.111974 10.189227 5.386049 23.323595 4.031879 -39.568945 -12.467134 4.934606 -1.210335 -0.581269 4.937852 2.606438 0.023880 -0.039660 0.054940 18.671084 -10.477691 2.399095 -9.040547 -2.533664 15.047308 24.098938 -16.112694 26.219564 -1.576572 -7.891396 1.666672 -0.010200 0.111950 -0.213750 -5.417303 1.119957 -9.320912 16.649848 -2.933889 32.324516 -10.356295 8.030285 -1.230660 -7.122311 -9.409401 -17.704831 -21.792304 8.216338 38.317856 11.068200 2.201960 -36.576780 5.712588 -25.291779 1.303312 45.296078 -13.099320 -11.907933 30.758260 -4.553637 -2.281696 -3.834804 2.055206 0.962990 -0.384200 0.188050 -0.100160 10.251458 32.453665 15.741264 30.809955 21.260775 0.050570 8.567059 29.042179 1.936430 2.131503 -0.571399 -0.478520 0.694890 0.316720 -0.186370 
-27.116960 15.992800 -14.099720 -10.131603 37.888963 -22.274570 -15.141147 10.695149 4.862460 22.859390 4.933093 -37.069746 -12.382062 6.070930 3.801632 -0.628891 5.042589 2.485036 0.067500 -0.011310 0.130850 18.552382 -10.401666 2.740793 -11.387131 -1.248559 17.074162 30.802325 -16.808525 22.521397 -1.724421 -8.160795 1.542523 -0.023330 -0.001030 -0.147370 -5.180509 0.718397 -9.247872 16.218552 -3.333754 38.007339 -10.287219 9.027591 -2.246133 -5.884143 -8.781880 -18.006740 -20.802173 8.123526 40.586527 7.925250 3.551290 -40.012270 4.025561 -25.683085 0.952357 47.963574 -12.966370 -13.491374 33.762716 -1.781376 -2.238396 -3.836725 2.110194 1.038220 -0.424250 0.271260 -0.148530 9.685330 33.290122 15.667659 27.807703 21.211751 -1.398411 8.768008 31.466322 2.341434 2.072197 -0.580693 -0.429030 0.617690 0.316640 -0.239520 
-26.912210 15.965750 -14.092900 -12.858674 32.280348 -22.451915 -15.086628 10.184209 4.751280 26.666996 7.525190 -37.172592 -11.211488 7.925885 9.115456 -0.499916 5.770545 2.118894 0.314510 0.302660 0.258870 18.766576 -9.632157 3.376262 -11.732115 1.411050 15.551369 46.762900 -13.768591 10.303518 -1.919676 -8.015047 1.520223 0.127870 -0.151430 -0.119960 -5.168614 0.796155 -9.535440 22.877429 -4.992155 37.345657 -15.347933 12.398477 -1.909795 -5.289281 -8.440742 -19.160277 -20.029537 8.812913 41.753611 7.852920 4.668710 -38.955300 5.035375 -25.412683 0.942484 48.479988 -12.055051 -13.345843 30.686733 -0.370910 -1.934637 -3.752103 2.220997 1.009430 -0.489950 0.375060 -0.069350 8.019543 34.212068 15.975433 28.459024 22.550213 -2.194229 4.561188 33.440447 1.150903 2.015656 -0.789658 -0.298130 0.513810 0.142800 -0.220020 
-26.767970 15.935850 -14.076550 -9.158531 22.404539 -18.637599 -15.053141 9.582066 4.051622 29.882524 9.845766 -32.598329 -12.589836 10.699619 15.171037 -0.392471 6.958315 1.701213 0.241700 0.230110 0.268250 19.010389 -7.740683 5.532933 -13.205936 8.650414 13.532253 65.514258 3.804193 -13.752194 -1.817033 -6.616802 1.928454 0.126020 -0.083770 -0.187320 -4.901916 0.448852 -10.298018 20.966993 -1.255859 38.571279 -17.401847 18.020221 -3.376190 -4.667644 -8.020759 -22.285822 -18.690296 9.239039 46.200159 7.187620 5.703050 -36.718640 6.129788 -24.901444 0.201210 48.464169 -10.705332 -12.663280 29.155825 0.773572 -1.743592 -3.885472 1.927072 1.042420 -0.454290 0.361050 -0.101510 7.373402 36.517155 18.394971 26.718965 24.032522 -3.965464 2.720219 35.537730 0.740170 1.859392 -0.730940 -0.397940 0.654600 0.195100 -0.250210 
-26.553100 15.852570 -14.030130 -8.988116 16.802643 -15.089629 -15.106333 8.896790 4.421435 32.573502 12.204058 -32.600066 -17.105776 13.668007 17.963931 -0.326038 8.504425 1.133574 0.237120 0.108480 0.244720 19.125730 -6.729903 6.156839 -13.514341 13.101446 10.710534 62.865534 10.649277 -20.535050 -1.708398 -6.103883 1.997479 0.122780 -0.005370 -0.106040 -4.756230 0.443707 -10.760656 22.531281 1.144640 36.490739 -18.183181 21.422442 -5.003194 -5.085144 -8.638119 -22.330909 -19.469938 9.271228 45.716371 10.267190 4.495570 -35.691130 5.582979 -23.428350 -1.202764 47.983229 -13.724056 -12.570110 28.885109 2.748936 -1.819941 -3.965692 2.013483 1.138540 -0.443580 0.315210 -0.103610 9.520362 36.243985 18.859540 24.320240 27.035449 -1.676570 3.827641 31.558097 1.552825 1.848405 -0.669317 -0.469950 0.651730 0.299730 -0.285140 
